<svg width="367" height="354" viewBox="0 0 367 354" fill="none" xmlns="http://www.w3.org/2000/svg">
    <g clip-path="url(#clip0_193_99)">
        <path fill-rule="evenodd" clip-rule="evenodd"
            d="M146.572 290.067L86.9627 341.885C43.2764 268.788 16.4111 218.006 6.3665 189.539C-8.70034 146.838 16.6207 61.7643 64.3431 36.8396C112.065 11.9149 192.397 15.2686 219.583 21.687C237.706 25.9659 284.477 53.6137 359.893 104.63L301.361 155.511C267.28 119.933 233.258 100.393 199.293 96.8922C148.346 91.6406 76.3789 114.226 85.0216 156.86C90.7834 185.282 111.3 229.684 146.572 290.067Z"
            fill="#D5D5D5" />
        <path fill-rule="evenodd" clip-rule="evenodd"
            d="M269.654 78.0487C266.477 75.0539 265.794 72.3428 267.719 67.9924C269.028 65.0457 267.971 61.0175 267.971 57.0901C275.483 65.4784 275.63 67.3723 269.654 78.0487ZM239.48 18.9849C253.614 8.65942 264.627 14.2308 266.647 28.0077C260.956 20.8116 251.608 15.0864 239.48 18.9849ZM167.892 38.9004C169.267 36.4584 170.424 34.401 171.662 32.2042C172.715 33.18 173.711 33.7521 173.64 34.0837C172.834 37.7803 172.786 37.7707 167.892 38.9004ZM94.0358 120.721C84.3509 113.952 84.3794 104.93 90.7301 97.6469C92.4754 95.6472 95.4777 94.3253 101.487 95.3876C95.0793 101.771 90.455 112.366 94.0358 120.721ZM268.611 51.115C268.872 49.4902 269.474 47.6059 269.427 45.7456C269.213 37.814 270.119 29.5363 268.16 22.0422C265.481 11.7648 255.62 7.25577 246.647 10.9283C239.689 13.7789 233.068 17.4659 226.234 20.8212C214.727 5.38584 201.016 1.23738 186.152 8.83247C178.61 12.6733 174.261 19.3502 170.628 26.6473C166.621 34.6846 164.377 44.2314 153.426 46.0436C152.122 46.2599 150.76 47.6491 149.907 48.8461C147.132 52.7253 143.584 53.2541 139.036 53.0715C130.048 52.7109 123.105 56.8882 118.547 64.8919C115.165 70.819 111.243 76.5009 108.525 82.726C106.173 88.1098 102.407 91.8016 96.0373 93.1956C84.6355 95.6905 82.8569 108.929 86.0062 114.044C89.1317 119.12 92.9545 124.432 97.778 127.585C104.171 131.753 106.419 137.757 106.135 143.982C105.732 152.87 103.223 161.662 101.387 171.747C92.779 166.344 85.5366 166.892 79.499 173.208C73.6084 179.366 73.6368 187.067 75.515 194.859C77.2319 201.969 81.7898 207.035 87.6045 210.996C90.0756 212.679 92.8169 213.948 96.08 215.76C95.6626 221.899 95.3733 227.98 94.8232 234.041C91.745 267.724 85.8924 300.965 79.0579 334.046C78.2801 337.81 76.8145 342.747 81.4768 343.968C86.8552 345.377 86.822 339.709 87.4907 336.238C90.2605 321.928 93.1489 307.622 95.2595 293.206C98.6554 270.055 101.458 246.818 104.541 223.624C105.746 214.539 104.66 207.766 93.9932 204.343C85.1952 201.527 81.287 191.518 83.962 183.616C84.8442 181.02 87.282 177.756 89.5633 177.222C91.5458 176.756 94.8753 179.227 96.597 181.27C99.2008 184.356 100.927 188.202 102.782 191.316C110.375 191.191 112.988 187.062 114.71 181.457C118.651 168.632 123.413 156.038 126.795 143.064C128.972 134.714 133.629 129.133 141.094 126.518C152.515 122.518 164.197 119.211 175.917 116.197C191.402 112.212 204.995 117 217.616 126.225C221.396 128.993 223.464 131.772 223.132 136.593C222.311 148.452 222.458 160.427 220.936 172.18C217.44 199.219 213.636 226.254 201.158 251.039C194.49 264.287 187.665 267.969 173.678 262.826C163.832 259.211 154.65 253.606 145.434 248.419C141.863 246.41 139.036 242.79 134.896 247.035C141.839 262.09 163.827 271.887 193.437 273.214C194.243 275.146 195.324 277.175 195.946 279.338C201.338 298.128 206.579 316.972 212.043 335.743C213.238 339.858 213.091 345.055 218.161 346.886C223.938 344.386 221.576 340.353 220.646 336.926C215.315 317.313 209.994 297.701 204.34 278.184C202.557 272.031 202.666 267.138 205.673 260.85C212.081 247.467 217.791 233.46 221.467 219.096C225.636 202.82 227.358 185.894 229.971 169.219C231.432 159.927 232.551 150.587 233.523 143.429C240.481 140.213 245.622 138.776 249.658 135.8C262.758 126.138 264.105 109.136 272.548 96.4692C273.6 94.8925 273.525 91.6382 272.652 89.8115C270.323 84.9372 272.239 81.0243 274.051 76.722C278.988 64.9881 277.983 60.5704 268.611 51.115Z"
            fill="black" />
        <path fill-rule="evenodd" clip-rule="evenodd"
            d="M178.968 145.834C180.268 145.332 181.692 142.661 182.423 139.341C183.302 135.399 182.896 132.088 181.338 130.478C181.324 130.468 181.309 130.459 181.295 130.464C181.276 130.464 181.262 130.473 181.252 130.488C177.1 137.559 168.777 139.742 160.722 141.854C156.451 142.977 152.103 144.171 148.41 146.054C148.233 146.144 148.07 146.235 147.898 146.331C147.325 146.636 146.718 146.914 146.183 147.262C138.888 152.035 137.526 159.785 136.618 164.921C136.613 164.945 136.628 164.964 136.656 164.974C136.661 164.978 136.666 164.978 136.675 164.978C136.695 164.978 136.709 164.969 136.723 164.954C145.022 152.246 160.55 149.494 170.822 147.668C174.171 147.071 177.072 146.56 178.968 145.834Z"
            fill="black" />
        <path fill-rule="evenodd" clip-rule="evenodd"
            d="M190.569 160.347C190.545 160.347 190.521 160.371 190.521 160.395L186.928 192.54C186.923 192.559 186.933 192.573 186.942 192.587C186.952 192.597 186.966 192.602 186.981 192.602H186.99L198.419 191.46C198.433 191.46 198.447 191.45 198.457 191.441C198.462 191.426 198.466 191.407 198.462 191.393L190.626 160.39C190.621 160.361 190.597 160.342 190.569 160.347Z"
            fill="black" />
        <path fill-rule="evenodd" clip-rule="evenodd"
            d="M192.781 201.546C187.955 204.064 183.574 204.657 179.78 203.304C174.157 201.326 171.534 195.674 171.419 195.426L171.18 194.896L169.293 195.713L169.537 196.272C169.842 196.95 172.695 202.994 179.083 205.249C180.631 205.798 182.274 206.076 183.956 206.076C187.009 206.076 190.296 205.168 193.736 203.381L194.271 203.099L193.306 201.274L192.781 201.546Z"
            fill="black" />
        <path fill-rule="evenodd" clip-rule="evenodd"
            d="M150.289 163.352C150.083 164.25 149.954 165.301 149.954 166.042C149.954 170.781 154.345 174.632 159.744 174.632C165.143 174.632 169.539 170.781 169.539 166.042C169.539 164.001 167.862 161.584 166.38 160.002C173.81 160.604 180.408 164.637 182.338 165.932C180.623 168.024 174.12 175.143 164.976 175.707C164.603 175.731 164.23 175.745 163.858 175.745C154.981 175.745 146.39 169.386 144.02 167.489C144.976 166.658 147.159 164.947 150.289 163.352ZM184.125 166.228C184.374 165.879 184.297 165.401 183.948 165.129C183.58 164.852 174.789 158.421 164.875 158.292H164.479C151.039 158.292 142.611 166.615 142.243 166.978C142.1 167.136 142.019 167.346 142.028 167.556C142.033 167.776 142.138 167.986 142.281 168.101C142.3 168.125 145.119 170.614 149.309 172.969C152.845 174.957 158.244 177.331 163.872 177.331C164.273 177.331 164.68 177.322 165.076 177.293C176.466 176.591 183.815 166.653 184.125 166.228Z"
            fill="black" />
        <path fill-rule="evenodd" clip-rule="evenodd"
            d="M198.865 163.594C199.017 165.529 199.791 167.493 201.11 169.07C202.658 170.938 204.641 171.965 206.691 171.965C211.038 171.965 214.574 168.429 214.574 164.082C214.574 162.065 213.8 160.207 212.467 158.759C213.035 158.716 213.585 158.64 214.177 158.64C220.006 158.64 225.353 162.959 226.843 164.282C225.486 166.217 220.216 172.987 212.792 173.518C212.5 173.542 212.209 173.551 211.913 173.551C204.779 173.551 197.842 167.632 195.902 165.83C196.461 165.338 197.503 164.507 198.865 163.594ZM214.177 157.049C202.457 157.054 194.249 165.19 194.182 165.267C193.872 165.568 193.872 166.074 194.173 166.37C194.192 166.394 196.428 168.697 199.916 170.976C202.821 172.873 207.259 175.137 211.903 175.137C212.238 175.137 212.572 175.128 212.902 175.104C222.156 174.44 227.933 165.582 228.568 164.564C228.754 164.254 228.707 163.852 228.444 163.59C227.765 162.921 221.573 157.049 214.177 157.049Z"
            fill="black" />
        <path fill-rule="evenodd" clip-rule="evenodd"
            d="M230.649 159.201C230.052 154.958 229.493 150.95 223.798 147.887C219.827 145.756 215.451 144.547 211.218 143.377C203.559 141.265 196.321 139.263 191.347 132.249C191.337 132.235 191.323 132.226 191.304 132.226C191.285 132.221 191.275 132.235 191.266 132.245C189.856 133.979 189.732 137.319 190.941 141.17C191.959 144.418 193.607 146.955 194.94 147.338C196.775 147.868 199.006 148.15 201.586 148.47C210.081 149.54 221.719 151.002 231.275 163.195C231.284 163.205 231.299 163.214 231.313 163.214C231.323 163.214 231.332 163.209 231.337 163.205C231.366 163.195 231.375 163.171 231.37 163.147C231.022 161.838 230.835 160.496 230.649 159.201Z"
            fill="black" />
    </g>
    <defs>
        <clipPath id="clip0_193_99">
            <rect width="366.967" height="353.413" fill="white" />
        </clipPath>
    </defs>
</svg>