<svg width="556" height="546" viewBox="0 0 556 546" fill="#fff" xmlns="http://www.w3.org/2000/svg">
    <path fill-rule="evenodd" clip-rule="evenodd"
        d="M281.364 8.56328e-05C276.46 2.85037 273.492 8.1675 270.214 12.567C233.751 61.4509 197.769 111.884 161.193 161.264C147.956 179.133 134.275 196.694 121.256 214.781C95.4229 250.669 69.0698 286.753 41.7447 322.897C22.4356 348.422 1.46958e-05 376.925 1.07838e-05 421.672C9.48465e-06 436.533 2.51629 449.1 6.83315 461.539C22.2171 505.858 56.5034 539.843 113.692 542.355C144.174 543.694 167.416 533.737 185.655 521.17C204.603 508.114 216.792 490.072 229.554 471.601C280.694 397.561 331.652 323.416 382.829 250.353C386.107 246.224 388.984 241.592 392.902 236.35C395.607 232.725 400.993 226.197 406.93 226.295C411.104 226.362 415.307 230.484 415.925 234.56C416.98 241.471 411.752 246.991 408.369 251.797C384.472 285.783 361.524 318.7 337.483 352.37C330.281 362.455 324.503 372.991 320.57 384.694C316.411 397.072 315.53 412.452 315.53 428.508C315.53 460.02 326.642 481.288 341.439 500.345C362.255 523.238 387.975 542.957 428.868 544.882C467.464 546.702 495.361 530.811 515.582 513.273C537.181 494.532 550.659 468.668 554.441 433.893C558.57 395.937 543.63 366.779 527.101 344.458C510.113 321.528 493.516 297.816 478.169 275.502C462.251 252.361 444.968 229.844 428.876 206.538C388.781 148.479 346.743 92.1575 306.542 33.7751C302.542 27.9617 298.376 22.3062 294.307 16.5304C290.314 10.8297 286.819 4.51242 281.364 8.56328e-05Z"
        fill="#fff" />
</svg>