<svg width="276" height="276" viewBox="0 0 276 276" fill="none" xmlns="http://www.w3.org/2000/svg">
    <path
        d="M201.11 73.5499L200.44 73.1399L163.82 49.9199L158.75 46.6899L141.39 35.6999L137.81 33.4199L134.42 35.5699L116.87 46.6899L111.99 49.7899L75.3999 72.9799L74.5099 73.5499L53.5699 86.8199L74.5099 100.09L75.3999 100.66L111.99 123.85L116.87 126.95L134.42 138.07L137.81 140.22L141.39 137.94L158.72 126.95L163.82 123.72L200.44 100.5L201.07 100.09L222.01 86.8199L201.1 73.5499H201.11ZM163.82 97.1799L141.39 111.4L137.81 113.68L134.42 111.56L111.99 97.3399L95.45 86.8199L111.99 76.3299L134.42 62.1099L137.81 59.9899L141.39 62.2399L163.82 76.4599L180.17 86.8199L163.82 97.1799Z"
        fill="white" />
    <path d="M164.01 156.87L163.82 157V156.74L164.01 156.87Z" fill="white" />
    <path
        d="M134.42 144.8V242.19L116.87 231.07L111.99 227.96V157.12L111.58 156.87L90.64 143.59L75.4 133.93V204.77L60.99 195.65L52.97 190.55V93.1599L69.22 103.46L75.4 107.38L111.58 130.32L111.99 130.57L132.52 143.59L134.42 144.8Z"
        fill="white" />
    <path
        d="M206.37 103.46L200.45 107.23L164.02 130.33L163.83 130.46L143.11 143.61L141.4 144.69V242.08L158.76 231.09L163.83 227.86L193.67 208.95L200.45 204.64L214.61 195.67L222.85 190.44V93.0499L206.38 103.47L206.37 103.46ZM200.45 178.07L198.96 179.02L193.67 182.35L172.73 195.66L163.83 201.3V156.76L164.02 156.89L184.96 143.62L200.45 133.8V178.09V178.07Z"
        fill="white" />
    <path
        d="M137.78 0C61.68 0 0 61.68 0 137.78C0 213.88 61.68 275.59 137.78 275.59C213.88 275.59 275.59 213.91 275.59 137.78C275.59 61.65 213.91 0 137.78 0ZM137.78 260.45C70.05 260.45 15.14 205.55 15.14 137.78C15.14 70.01 70.04 15.14 137.78 15.14C205.52 15.14 260.45 70.04 260.45 137.78C260.45 205.52 205.55 260.45 137.78 260.45Z"
        fill="white" />
</svg>