<svg width="775" height="276" viewBox="0 0 775 276" fill="none" xmlns="http://www.w3.org/2000/svg">
    <path
        d="M201.11 73.5499L200.44 73.1399L163.82 49.9199L158.75 46.6899L141.39 35.6999L137.81 33.4199L134.42 35.5699L116.87 46.6899L111.99 49.7899L75.3999 72.9799L74.5099 73.5499L53.5699 86.8199L74.5099 100.09L75.3999 100.66L111.99 123.85L116.87 126.95L134.42 138.07L137.81 140.22L141.39 137.94L158.72 126.95L163.82 123.72L200.44 100.5L201.07 100.09L222.01 86.8199L201.1 73.5499H201.11ZM163.82 97.1799L141.39 111.4L137.81 113.68L134.42 111.56L111.99 97.3399L95.45 86.8199L111.99 76.3299L134.42 62.1099L137.81 59.9899L141.39 62.2399L163.82 76.4599L180.17 86.8199L163.82 97.1799Z"
        fill="#FFCF39" />
    <path d="M164.01 156.87L163.82 157V156.74L164.01 156.87Z" fill="#FFCF39" />
    <path
        d="M134.42 144.8V242.19L116.87 231.07L111.99 227.96V157.12L111.58 156.87L90.64 143.59L75.4 133.93V204.77L60.99 195.65L52.97 190.55V93.1599L69.22 103.46L75.4 107.38L111.58 130.32L111.99 130.57L132.52 143.59L134.42 144.8Z"
        fill="#FFCF39" />
    <path
        d="M206.37 103.46L200.45 107.23L164.02 130.33L163.83 130.46L143.11 143.61L141.4 144.69V242.08L158.76 231.09L163.83 227.86L193.67 208.95L200.45 204.64L214.61 195.67L222.85 190.44V93.0498L206.38 103.47L206.37 103.46ZM200.45 178.07L198.96 179.02L193.67 182.35L172.73 195.66L163.83 201.3V156.76L164.02 156.89L184.96 143.62L200.45 133.8V178.09V178.07Z"
        fill="#FFCF39" />
    <path
        d="M137.78 0C61.68 0 0 61.68 0 137.78C0 213.88 61.68 275.59 137.78 275.59C213.88 275.59 275.59 213.91 275.59 137.78C275.59 61.65 213.91 0 137.78 0ZM137.78 260.45C70.05 260.45 15.14 205.55 15.14 137.78C15.14 70.01 70.04 15.14 137.78 15.14C205.52 15.14 260.45 70.04 260.45 137.78C260.45 205.52 205.55 260.45 137.78 260.45Z"
        fill="#FFCF39" />
    <path d="M313.76 0H310.87V275.59H313.76V0Z" fill="white" />
    <path
        d="M433.55 118.82H409.92L403.07 97.4001H368.83L362.05 118.82H338.55L373.59 22.55H399.3L433.54 118.82H433.55ZM398.1 80.7601L387.76 48.4C387 45.98 386.46 43.1001 386.15 39.7401H385.61C385.39 42.5601 384.83 45.3601 383.93 48.1301L373.46 80.7601H398.1Z"
        fill="white" />
    <path
        d="M505.25 118.82H484.04V109.35H483.77C478.94 116.78 471.84 120.49 462.49 120.49C453.9 120.49 446.98 117.46 441.74 111.39C436.5 105.33 433.89 96.86 433.89 85.98C433.89 75.1 436.78 65.5 442.55 58.66C448.32 51.81 455.89 48.39 465.24 48.39C474.1 48.39 480.28 51.57 483.77 57.92H484.04V17.04H505.25V118.81V118.82ZM484.44 85.39V80.22C484.44 75.75 483.14 72.03 480.55 69.08C477.95 66.13 474.57 64.65 470.41 64.65C465.71 64.65 462.04 66.5 459.4 70.19C456.76 73.88 455.44 78.95 455.44 85.4C455.44 91.44 456.71 96.1 459.27 99.36C461.82 102.63 465.36 104.26 469.88 104.26C474.4 104.26 477.68 102.54 480.39 99.09C483.1 95.64 484.45 91.08 484.45 85.39H484.44Z"
        fill="white" />
    <path
        d="M583.07 50.0701L557.49 118.81H533.32L508.95 50.0701H531.64L543.59 92.4301C544.93 97.2201 545.72 101.29 545.94 104.65H546.21C546.52 101.47 547.35 97.5301 548.69 92.8301L560.91 50.0701H583.06H583.07Z"
        fill="white" />
    <path
        d="M648.39 90.4902H603.55C604.26 100.47 610.55 105.46 622.41 105.46C629.97 105.46 636.62 103.67 642.35 100.09V115.4C636 118.8 627.74 120.5 617.58 120.5C606.48 120.5 597.87 117.42 591.74 111.27C585.61 105.12 582.54 96.5301 582.54 85.5201C582.54 74.5101 585.85 65.0702 592.48 58.4002C599.1 51.7302 607.25 48.4001 616.92 48.4001C626.59 48.4001 634.7 51.3801 640.18 57.3301C645.66 63.2801 648.4 71.3601 648.4 81.5601V90.4902H648.39ZM628.72 77.4701C628.72 67.6301 624.74 62.7001 616.77 62.7001C613.37 62.7001 610.43 64.1102 607.94 66.9302C605.46 69.7502 603.95 73.2601 603.41 77.4701H628.72Z"
        fill="white" />
    <path
        d="M721.91 118.82H700.76V80.6202C700.76 69.9702 696.96 64.6402 689.35 64.6402C685.68 64.6402 682.66 66.0502 680.29 68.8702C677.92 71.6902 676.73 75.2702 676.73 79.6102V118.82H655.52V50.0802H676.73V60.9602H677C682.06 52.5902 689.42 48.4102 699.09 48.4102C714.31 48.4102 721.92 57.8502 721.92 76.7402V118.83L721.91 118.82Z"
        fill="white" />
    <path
        d="M774.75 118.01C771.62 119.66 766.89 120.49 760.58 120.49C745.63 120.49 738.16 112.73 738.16 97.1999V65.7199H727.02V50.0799H738.16V35.24L759.31 29.2V50.0799H774.75V65.7199H759.31V93.51C759.31 100.67 762.15 104.25 767.84 104.25C770.08 104.25 772.38 103.6 774.75 102.3V118.01Z"
        fill="white" />
    <path
        d="M341.43 225.87V129.6H368.01C401.93 129.6 418.9 145.24 418.9 176.53C418.9 191.39 414.19 203.33 404.77 212.34C395.35 221.36 382.74 225.87 366.94 225.87H341.43ZM352.71 139.81V215.67H367.08C379.7 215.67 389.53 212.29 396.55 205.53C403.58 198.77 407.09 189.19 407.09 176.8C407.09 152.14 393.98 139.81 367.75 139.81H352.71Z"
        fill="white" />
    <path
        d="M486.11 194.25H437.57C437.75 201.9 439.81 207.81 443.75 211.97C447.69 216.13 453.1 218.21 460 218.21C467.74 218.21 474.86 215.66 481.35 210.56V220.9C475.31 225.29 467.32 227.48 457.38 227.48C447.44 227.48 440.04 224.36 434.49 218.12C428.94 211.88 426.17 203.09 426.17 191.77C426.17 181.07 429.2 172.36 435.27 165.62C441.33 158.89 448.86 155.52 457.86 155.52C466.86 155.52 473.81 158.43 478.74 164.25C483.66 170.07 486.12 178.15 486.12 188.48V194.25H486.11ZM474.83 184.92C474.79 178.57 473.25 173.62 470.23 170.08C467.21 166.55 463.01 164.78 457.64 164.78C452.27 164.78 448.04 166.64 444.41 170.35C440.78 174.07 438.55 178.92 437.7 184.92H474.82H474.83Z"
        fill="white" />
    <path
        d="M508.54 215.94H508.27V257.5H497.26V157.14H508.27V169.22H508.54C513.95 160.09 521.88 155.53 532.3 155.53C541.16 155.53 548.08 158.61 553.05 164.76C558.02 170.92 560.5 179.16 560.5 189.5C560.5 201 557.7 210.21 552.11 217.13C546.52 224.04 538.86 227.5 529.15 227.5C520.24 227.5 513.37 223.65 508.54 215.95V215.94ZM508.27 188.22V197.82C508.27 203.5 510.12 208.33 513.81 212.29C517.5 216.25 522.19 218.23 527.87 218.23C534.54 218.23 539.76 215.68 543.55 210.58C547.33 205.48 549.22 198.38 549.22 189.3C549.22 181.65 547.45 175.65 543.92 171.31C540.38 166.97 535.6 164.8 529.55 164.8C523.15 164.8 518 167.03 514.11 171.48C510.22 175.93 508.27 181.52 508.27 188.23V188.22Z"
        fill="white" />
    <path
        d="M601.32 227.48C591.16 227.48 583.05 224.27 576.98 217.85C570.92 211.43 567.88 202.91 567.88 192.31C567.88 180.76 571.03 171.75 577.35 165.26C583.66 158.77 592.19 155.53 602.93 155.53C613.67 155.53 621.18 158.69 626.93 165C632.68 171.31 635.56 180.06 635.56 191.25C635.56 202.44 632.46 211 626.26 217.6C620.06 224.2 611.75 227.5 601.32 227.5V227.48ZM602.13 164.78C595.06 164.78 589.46 167.19 585.35 172C581.23 176.81 579.17 183.45 579.17 191.9C579.17 200.35 581.25 206.47 585.41 211.17C589.57 215.87 595.14 218.22 602.13 218.22C609.12 218.22 614.72 215.91 618.54 211.31C622.37 206.7 624.28 200.14 624.28 191.64C624.28 183.14 622.37 176.42 618.54 171.77C614.71 167.11 609.24 164.79 602.13 164.79V164.78Z"
        fill="white" />
    <path
        d="M679.54 225.2C676.94 226.63 673.52 227.35 669.27 227.35C657.23 227.35 651.21 220.64 651.21 207.21V166.53H639.4V157.13H651.21V140.35L662.22 136.79V157.13H679.54V166.53H662.22V205.27C662.22 209.88 663 213.17 664.57 215.14C666.14 217.11 668.73 218.09 672.36 218.09C675.13 218.09 677.53 217.33 679.54 215.81V225.21V225.2Z"
        fill="white" />
</svg>